<svg width="66" height="44" viewBox="0 0 66 44" fill="#2d2d2d" xmlns="http://www.w3.org/2000/svg">
    <path fill-rule="evenodd" clip-rule="evenodd" d="M34.0717 2.72842C31.4657 4.22504 29.3082 5.45907 29.2772 5.4707C29.2463 5.48232 32.2272 10.715 35.9015 17.099L42.582 28.7061H49.0018H55.4216L55.2663 28.4301C54.9061 27.7899 38.9521 0.216252 38.8843 0.11662C38.8183 0.0196513 38.2748 0.31465 34.0717 2.72842ZM23.0659 12.8348C20.4403 14.348 18.3001 15.6173 18.3098 15.6555C18.3195 15.6937 20.0219 18.653 22.0929 22.2318L25.8583 28.7386L25.8584 30.0863L25.8587 31.434H27.2226H28.5866V30.0704V28.7069L33.5889 28.6903L38.5913 28.6736L33.2257 19.3859C30.2747 14.2777 27.8556 10.0949 27.8499 10.0908C27.8443 10.0868 25.6915 11.3216 23.0659 12.8348ZM11.8338 22.6666C9.24616 24.1656 7.10706 25.4144 7.08024 25.4416C7.05342 25.4688 7.44499 26.2145 7.95049 27.0986L8.86952 28.7061H15.2603C20.3462 28.7061 21.6446 28.6895 21.6197 28.6249C21.5429 28.4251 16.6393 19.9718 16.5918 19.9573C16.5625 19.9484 14.4214 21.1675 11.8338 22.6666ZM21.7669 31.0135V33.3209L21.296 33.0633C19.6367 32.1556 17.6447 32.1311 15.889 32.9966C14.7428 33.5618 13.9153 34.3786 13.3598 35.4933C12.8922 36.4317 12.7732 36.9508 12.7793 38.0263C12.7854 39.1125 12.9111 39.669 13.3518 40.5593C14.3191 42.5138 16.3317 43.7733 18.487 43.7733C19.4162 43.7733 20.325 43.5446 21.2295 43.083L21.7669 42.8088V43.1616V43.5145H23.1308H24.4948V36.1103V28.7061H23.1308H21.7669V31.0135ZM38.6537 31.0037V33.3013L38.1828 33.0502C36.1778 31.9809 33.6975 32.1784 31.8948 33.5509C30.8349 34.3579 30.0594 35.5832 29.7828 36.8881C29.6758 37.3928 29.6637 38.467 29.759 39.0048C30.3012 42.0659 33.1227 44.1264 36.2084 43.7145C36.8608 43.6274 37.8829 43.2845 38.3435 42.9982L38.6537 42.8054V43.1599V43.5145H40.0176H41.3815V36.1103V28.7061H40.0176H38.6537V31.0037ZM5.03259 32.4075C2.84153 32.7169 1.00964 34.2404 0.346125 36.3051C-0.502889 38.947 0.723544 41.8783 3.20161 43.1301C4.88646 43.9812 6.7603 43.9826 8.46859 43.1343L9.10185 42.8198V43.1671V43.5145H10.4333H11.7648V37.9938V32.4731H10.4333H9.10185V32.89V33.3069L8.48522 32.9929C8.11488 32.8044 7.64036 32.6254 7.29698 32.5448C6.63294 32.3889 5.60538 32.3266 5.03259 32.4075ZM47.2083 32.4097C45.7885 32.634 44.3738 33.4395 43.5308 34.5033C43.0952 35.0531 42.7252 35.765 42.5101 36.4675C42.3491 36.9933 42.3313 37.1468 42.3334 37.9938C42.3361 39.0836 42.4531 39.6331 42.8659 40.4944C43.6144 42.0559 44.971 43.1615 46.7074 43.6252C47.3053 43.7849 48.7815 43.7815 49.3921 43.619C49.9535 43.4696 50.4987 43.2487 50.9227 42.9986L51.2538 42.8034V43.159V43.5145H52.6177H53.9817V37.9938V32.4731H52.6177H51.2538V32.9032C51.2538 33.2394 51.2361 33.3189 51.1726 33.267C50.9437 33.08 49.9867 32.6658 49.5061 32.5457C48.8789 32.389 47.7589 32.3227 47.2083 32.4097ZM59.2101 32.3859C57.2337 32.6205 55.8983 33.5396 55.4646 34.9637C55.3526 35.3313 55.3343 35.5252 55.3591 36.0824C55.3866 36.6996 55.4096 36.7978 55.6327 37.2494C56.225 38.4477 57.0854 38.8759 59.8012 39.3242C61.1317 39.5439 61.5806 39.6887 61.8376 39.9813C62.2466 40.4471 61.9985 41.1315 61.2884 41.4965C60.9951 41.6473 60.8914 41.6634 60.2168 41.6634C59.6326 41.6634 59.3943 41.6354 59.1232 41.5349C58.4915 41.3007 58.0659 40.8112 57.9695 40.2081L57.9269 39.9423H56.5064H55.0858V40.156C55.0858 40.5017 55.2674 41.0996 55.5162 41.5732C56.2996 43.0638 58.1927 43.878 60.5791 43.7504C63.2523 43.6075 64.8191 42.4031 65.0001 40.3521C65.1522 38.6304 64.0168 37.3759 61.8946 36.9208C61.4898 36.834 60.7494 36.6904 60.2492 36.6018C59.1138 36.4007 58.718 36.2741 58.4269 36.0189C58.1379 35.7657 58.0743 35.4532 58.2404 35.1032C58.3301 34.9142 58.4389 34.8198 58.7183 34.6888C59.0525 34.532 59.1473 34.519 59.957 34.519C60.7959 34.519 60.8469 34.5268 61.1366 34.6971C61.4983 34.9097 61.7055 35.2202 61.7655 35.6396L61.8095 35.9479L63.189 35.9655C64.7646 35.9855 64.6361 36.0487 64.4683 35.3369C64.2678 34.4861 63.5869 33.5592 62.8204 33.0936C61.9224 32.5481 60.3838 32.2465 59.2101 32.3859ZM25.8587 37.9938V43.5145H27.2226H28.5866V37.9938V32.4731H27.2226H25.8587V37.9938ZM6.70315 34.981C7.95387 35.352 8.85147 36.3633 9.04716 37.622C9.19732 38.5878 8.86004 39.5277 8.10208 40.2555C6.62332 41.6755 4.30698 41.3986 3.18752 39.6681C2.84439 39.1377 2.71462 38.6021 2.74742 37.8514C2.77093 37.3152 2.8025 37.1826 3.01144 36.7426C3.68438 35.3256 5.28713 34.5608 6.70315 34.981ZM19.3682 34.9799C19.9528 35.1516 20.4469 35.4542 20.8552 35.8907C22.0748 37.1945 22.0377 39.0354 20.7672 40.2555C19.5314 41.4421 17.6696 41.4731 16.4165 40.328C15.8167 39.7797 15.5049 39.1857 15.4018 38.3946C15.2077 36.9049 16.2544 35.3804 17.7469 34.9791C18.2169 34.8527 18.9364 34.853 19.3682 34.9799ZM36.6477 35.0983C37.8541 35.588 38.6537 36.768 38.6537 38.0588C38.6537 39.5792 37.5469 40.8579 36.0019 41.1229C34.9895 41.2965 34.0101 40.9719 33.2685 40.2168C32.5737 39.5095 32.3208 38.846 32.3645 37.8453C32.3875 37.3187 32.4201 37.181 32.6222 36.7575C33.0251 35.913 33.6748 35.3306 34.5604 35.0199C35.151 34.8127 36.0249 34.8456 36.6477 35.0983ZM48.92 34.981C49.4984 35.1525 49.8959 35.3895 50.3108 35.8102C51.326 36.8394 51.5383 38.2203 50.8809 39.5183C50.6382 39.9976 49.9834 40.6198 49.4677 40.8611C47.367 41.8441 44.9492 40.2977 44.9545 37.9744C44.9575 36.6494 46.0029 35.3403 47.3569 34.9658C47.7716 34.8512 48.5066 34.8583 48.92 34.981Z" />
</svg>
