<svg width="39" height="48" viewBox="0 0 39 48" fill="#2d2d2d" xmlns="http://www.w3.org/2000/svg">
    <path fill-rule="evenodd" clip-rule="evenodd" d="M28.4511 0.587216C26.4744 0.777715 24.1537 1.92266 22.5255 3.51071C20.7836 5.20964 19.6065 7.57131 19.4001 9.78131C19.3684 10.1207 19.383 10.9283 19.4249 11.1539L19.4532 11.3063L19.6494 11.3342C19.9356 11.3748 20.6402 11.3504 21.0022 11.2873C22.3833 11.0465 23.8217 10.3667 25.1072 9.3473C25.4959 9.03907 26.2146 8.31167 26.5684 7.86838C27.0834 7.22317 27.5207 6.53367 27.8737 5.81016C28.3879 4.75642 28.6925 3.75957 28.8591 2.58561C28.9072 2.24632 28.9294 1.18915 28.8941 0.916165C28.8454 0.539236 28.8546 0.561259 28.7465 0.564781C28.6945 0.566473 28.5616 0.576581 28.4511 0.587216ZM27.5656 11.8978C27.0334 11.9292 26.3115 12.0455 25.6789 12.2019C24.8461 12.4077 24.2212 12.6201 22.7517 13.1967C21.5594 13.6646 21.1896 13.795 20.7099 13.9164C20.1014 14.0704 19.5676 14.0666 18.9097 13.9034C18.4437 13.7879 18.1033 13.6669 16.8788 13.1814C15.7004 12.7141 15.2708 12.5586 14.7132 12.3973C13.3554 12.0046 12.2719 11.9172 10.9055 12.0902C9.43216 12.2768 8.00666 12.7651 6.72041 13.5237C4.21974 14.9987 2.35154 17.3809 1.34565 20.3772C0.602697 22.5902 0.342583 25.099 0.570222 27.856C0.778674 30.3804 1.3958 33.06 2.35308 35.5972C2.96755 37.2258 3.79854 38.9414 4.62386 40.2853C5.37843 41.514 6.89927 43.5769 7.84413 44.6533C9.60165 46.6556 11.2317 47.5083 13.053 47.3783C14.012 47.3099 14.62 47.139 16.0962 46.523C17.0484 46.1257 17.4462 45.9771 17.9387 45.8346C19.428 45.404 21.1108 45.3661 22.5687 45.7305C23.1789 45.883 23.5301 46.01 24.5698 46.4541C25.8594 47.005 26.3533 47.1607 27.1654 47.2722C27.526 47.3217 28.299 47.341 28.6062 47.3081C30.0254 47.156 31.3204 46.4514 32.6088 45.1303C33.3951 44.3241 34.1905 43.3105 35.3342 41.6575C36.595 39.8351 37.7178 37.6105 38.4158 35.5514C38.628 34.9257 38.6293 34.9197 38.5613 34.8987C38.3311 34.8275 37.4502 34.3441 36.9877 34.0351C34.3447 32.2696 32.7491 29.7243 32.4042 26.724C32.1174 24.2284 32.6678 21.8548 34.0032 19.8289C34.7773 18.6546 35.8959 17.5348 37.0963 16.7325C37.2504 16.6295 37.3765 16.5341 37.3765 16.5206C37.3765 16.4819 37.0625 16.0617 36.79 15.7357C34.8628 13.4304 32.1391 12.1056 28.9149 11.9055C28.5677 11.884 27.8676 11.88 27.5656 11.8978Z" />
</svg>
