<svg width="106" height="36" viewBox="0 0 106 36" fill="#2d2d2d" xmlns="http://www.w3.org/2000/svg">
    <path d="M45.4245 18.7039C45.4245 23.6569 41.5497 27.3067 36.7945 27.3067C32.0393 27.3067 28.1646 23.6569 28.1646 18.7039C28.1646 13.7159 32.0393 10.101 36.7945 10.101C41.5497 10.101 45.4245 13.7159 45.4245 18.7039ZM41.6467 18.7039C41.6467 15.6087 39.401 13.491 36.7945 13.491C34.1881 13.491 31.9423 15.6087 31.9423 18.7039C31.9423 21.768 34.1881 23.9168 36.7945 23.9168C39.401 23.9168 41.6467 21.7641 41.6467 18.7039Z" />
    <path d="M64.0422 18.7039C64.0422 23.6569 60.1674 27.3067 55.4122 27.3067C50.657 27.3067 46.7822 23.6569 46.7822 18.7039C46.7822 13.7198 50.657 10.101 55.4122 10.101C60.1674 10.101 64.0422 13.7159 64.0422 18.7039ZM60.2644 18.7039C60.2644 15.6087 58.0187 13.491 55.4122 13.491C52.8058 13.491 50.56 15.6087 50.56 18.7039C50.56 21.768 52.8058 23.9168 55.4122 23.9168C58.0187 23.9168 60.2644 21.7641 60.2644 18.7039Z" />
    <path d="M81.8836 10.6208V26.0655C81.8836 32.4188 78.1368 35.0136 73.7074 35.0136C69.5379 35.0136 67.0284 32.2248 66.082 29.9442L69.3711 28.575C69.9568 29.9752 71.3919 31.6275 73.7035 31.6275C76.5388 31.6275 78.2958 29.8782 78.2958 26.5853V25.348H78.164C77.3184 26.3913 75.6894 27.3028 73.6337 27.3028C69.3323 27.3028 65.3916 23.5561 65.3916 18.7349C65.3916 13.8788 69.3323 10.101 73.6337 10.101C75.6855 10.101 77.3146 11.0125 78.164 12.0249H78.2958V10.6247H81.8836V10.6208ZM78.5635 18.7349C78.5635 15.7057 76.5427 13.491 73.9712 13.491C71.3647 13.491 69.181 15.7057 69.181 18.7349C69.181 21.7331 71.3647 23.9168 73.9712 23.9168C76.5427 23.9168 78.5635 21.7331 78.5635 18.7349Z" />
    <path d="M87.7987 1.56787V26.7791H84.114V1.56787H87.7987Z" />
    <path d="M102.157 21.5357L105.09 23.4905C104.143 24.8907 101.863 27.3032 97.9219 27.3032C93.0348 27.3032 89.385 23.5254 89.385 18.7004C89.385 13.5844 93.0658 10.0975 97.4991 10.0975C101.963 10.0975 104.147 13.6504 104.861 15.5703L105.253 16.5477L93.7524 21.3107C94.6328 23.0367 96.002 23.9171 97.9219 23.9171C99.8457 23.9171 101.18 22.9708 102.157 21.5357ZM93.1318 18.4405L100.819 15.2484C100.396 14.174 99.1243 13.4254 97.6271 13.4254C95.7072 13.4254 93.0348 15.1204 93.1318 18.4405Z" />
    <path d="M14.217 16.466V12.8162H26.5162C26.6365 13.4523 26.6985 14.2047 26.6985 15.0192C26.6985 17.7575 25.9499 21.1436 23.5374 23.5561C21.1908 25.9997 18.1927 27.3029 14.2209 27.3029C6.85926 27.3029 0.668945 21.3065 0.668945 13.9448C0.668945 6.58317 6.85926 0.586792 14.2209 0.586792C18.2935 0.586792 21.1947 2.18479 23.3745 4.26762L20.7991 6.84304C19.236 5.37692 17.1183 4.2366 14.217 4.2366C8.84125 4.2366 4.6368 8.56904 4.6368 13.9448C4.6368 19.3206 8.84125 23.6531 14.217 23.6531C17.7039 23.6531 19.6898 22.2529 20.962 20.9807C21.9937 19.949 22.6725 18.4751 22.9401 16.4621L14.217 16.466Z" />
</svg>
