<svg enable-background="new 0 0 32 32" version="1.1" viewBox="0 0 32 32" xml:space="preserve"
     xmlns="http://www.w3.org/2000/svg">
    <g>
        <g>
            <g>
                <path d="M20.842,16.139c0,2.584-2.163,4.68-4.831,4.68c-2.666,0-4.83-2.097-4.83-4.68c0-0.464,0.071-0.911,0.201-1.334     l-1.211-0.263v6.801c0,0.341,0.146,0.486,0.486,0.486h10.687c0.34,0,0.486-0.145,0.486-0.486v-6.801l-1.188,0.263     C20.771,15.229,20.842,15.675,20.842,16.139z" />
            </g>
            <g>
                <ellipse cx="16.011" cy="15.971" rx="3.121" ry="3.025" />
            </g>
            <g>
                <path d="M16,0C7.164,0,0,7.163,0,16s7.164,16,16,16s16-7.164,16-16S24.836,0,16,0z M23.773,21.829     c0,1.097-0.846,1.943-1.943,1.943H10.171c-1.097,0-1.943-0.846-1.943-1.943V10.17c0-1.097,0.846-1.943,1.943-1.943h11.659     c1.097,0,1.943,0.846,1.943,1.943V21.829z" />
            </g>
            <g>
                <path d="M21.344,10.17H19.4c-0.269,0-0.486,0.217-0.486,0.486v1.943c0,0.269,0.217,0.486,0.486,0.486h1.943     c0.269,0,0.486-0.217,0.486-0.486v-1.943C21.829,10.388,21.612,10.17,21.344,10.17z" />
            </g>
        </g>
    </g>
</svg>
