<svg width="108" height="28" viewBox="0 0 108 28" fill="#2d2d2d" xmlns="http://www.w3.org/2000/svg">
    <path fill-rule="evenodd" clip-rule="evenodd" d="M3.74424 0.527491C2.34325 0.726441 1.20228 1.78497 0.897708 3.16835C0.835629 3.45035 0.830357 4.47877 0.841072 14.2367L0.852892 24.9942L0.94954 25.3055C1.31321 26.4769 2.1426 27.2937 3.3403 27.6602L3.6592 27.7578L14.1403 27.7702C21.0834 27.7784 24.76 27.7679 25.0318 27.7391C26.3939 27.5945 27.4733 26.737 27.9249 25.4407L28.0656 25.0368V14.1729C28.0656 1.91661 28.1009 3.14684 27.7261 2.3737C27.3028 1.50064 26.5277 0.866927 25.5356 0.58281C25.2697 0.506657 24.8579 0.503425 14.6293 0.497472C8.78284 0.494071 3.88455 0.507592 3.74424 0.527491ZM14.9172 4.23224C15.014 4.28582 15.1515 4.41257 15.2227 4.51398L15.3521 4.69834L15.3638 11.551C15.3769 19.2105 15.4 18.6265 15.0727 18.9066C14.6847 19.2388 14.1705 19.222 13.8134 18.8654C13.7066 18.7587 13.6171 18.6198 13.5897 18.5179C13.5578 18.3995 13.5474 16.2893 13.5552 11.5272L13.5663 4.70608L13.6832 4.5295C13.9562 4.11689 14.4801 3.99069 14.9172 4.23224ZM10.2332 4.62891C10.4624 4.70978 10.64 4.87204 10.7432 5.09497C10.8187 5.25807 10.822 5.52374 10.8229 11.5703L10.8238 17.8756L10.7351 18.0493C10.6275 18.2604 10.4683 18.4157 10.2757 18.4974C10.1033 18.5706 9.74642 18.5771 9.56945 18.5104C9.39206 18.4434 9.16998 18.2231 9.07622 18.021C9.00045 17.8577 8.99731 17.5986 8.99731 11.558C8.99731 5.52234 9.00054 5.25807 9.07605 5.09497C9.27764 4.65957 9.76441 4.46351 10.2332 4.62891ZM19.3324 4.62891C19.5616 4.70978 19.7392 4.87204 19.8424 5.09497C19.9179 5.25807 19.9212 5.52374 19.9221 11.5703L19.923 17.8756L19.8344 18.0493C19.7267 18.2604 19.5675 18.4157 19.375 18.4974C19.2026 18.5706 18.8457 18.5771 18.6687 18.5104C18.4913 18.4434 18.2692 18.2231 18.1755 18.021C18.0997 17.8577 18.0965 17.5986 18.0965 11.558C18.0965 5.52234 18.0998 5.25807 18.1753 5.09497C18.3769 4.65957 18.8636 4.46351 19.3324 4.62891ZM5.74305 6.47112C5.95603 6.5679 6.17089 6.80843 6.23173 7.01827C6.26435 7.13073 6.27442 8.46543 6.26554 11.4973L6.25291 15.8162L6.13691 15.9914C5.86564 16.4014 5.30123 16.5291 4.88462 16.2748C4.73197 16.1816 4.64987 16.0909 4.56275 15.9191L4.44582 15.6884V11.4002C4.44582 6.70762 4.43314 6.95011 4.69256 6.67347C4.94525 6.40398 5.4017 6.31605 5.74305 6.47112ZM23.9415 6.47112C24.1545 6.5679 24.3694 6.80843 24.4302 7.01827C24.4628 7.13073 24.4729 8.46543 24.464 11.4973L24.4514 15.8162L24.3354 15.9914C24.0641 16.4014 23.4997 16.5291 23.0831 16.2748C22.9305 16.1816 22.8483 16.0909 22.7612 15.9191L22.6443 15.6884V11.4002C22.6443 6.70762 22.6316 6.95011 22.891 6.67347C23.1437 6.40398 23.6002 6.31605 23.9415 6.47112ZM81.0878 9.18355C79.7006 9.40201 78.5249 10.3939 78.0969 11.7068C77.8461 12.4762 77.7468 13.6338 77.8264 14.8605C77.8836 15.7407 77.976 16.2464 78.1725 16.7543C78.5916 17.8373 79.565 18.7065 80.6838 18.9965C81.0661 19.0955 81.9706 19.1321 82.3526 19.0638C83.1801 18.9159 83.8578 18.5651 84.449 17.9785C84.8268 17.6037 85.0904 17.201 85.1647 16.8849C85.2038 16.7186 85.1185 16.3873 84.9948 16.2251C84.8219 15.9984 84.5902 15.9046 84.2509 15.9237C83.8804 15.9447 83.7024 16.0772 83.4857 16.4936C83.1526 17.1337 82.7317 17.4369 82.0365 17.5374C81.5737 17.6043 81.2549 17.5527 80.8267 17.3415C80.1173 16.9918 79.7516 16.3865 79.6212 15.3466C79.5564 14.8293 79.5679 13.2458 79.6401 12.7673C79.7866 11.7955 80.1337 11.2731 80.8813 10.8999C81.6264 10.5278 82.62 10.6885 83.1482 11.2665C83.2686 11.3983 83.4161 11.6039 83.4758 11.7234C83.6055 11.9825 83.7216 12.1167 83.8941 12.2066C84.4018 12.4712 84.9785 12.2456 85.1305 11.7228C85.1905 11.5164 85.1906 11.4723 85.1315 11.269C84.9493 10.6424 84.2698 9.93351 83.4783 9.5442C82.9056 9.2625 82.5875 9.19048 81.8531 9.17602C81.5023 9.16909 81.1579 9.17249 81.0878 9.18355ZM90.3146 9.21684C89.8351 9.31178 89.3525 9.5004 88.9774 9.73945C88.025 10.3464 87.473 11.2414 87.2439 12.5506C87.1499 13.0878 87.1387 15.0645 87.2264 15.6399C87.4636 17.1949 88.2481 18.2632 89.5514 18.8058C90.091 19.0304 90.6047 19.1165 91.2713 19.0939C92.4229 19.055 93.2493 18.7086 93.9933 17.953C94.867 17.0657 95.1911 15.8841 95.1234 13.8328C95.0782 12.4617 94.9208 11.7133 94.5351 11.0362C94.0614 10.2044 93.2178 9.5567 92.2492 9.28087C91.8355 9.16305 90.7651 9.12763 90.3146 9.21684ZM42.1821 9.38343C41.9253 9.50359 41.7299 9.6965 41.5992 9.95919L41.5018 10.1548L41.4901 14.0866C41.4823 16.7285 41.4931 18.0894 41.5233 18.2349C41.6784 18.9817 42.641 19.1832 43.0745 18.5595L43.2026 18.3751L43.2141 15.3598C43.2204 13.7014 43.2395 12.3451 43.2566 12.3457C43.2737 12.3464 44.1559 13.7335 45.217 15.4283C46.4554 17.4062 47.2048 18.5624 47.3093 18.657C47.5196 18.8469 47.8741 18.9533 48.1987 18.9239C48.6272 18.885 48.9743 18.6365 49.1614 18.2345L49.2608 18.021L49.2613 13.9909C49.2616 10.4488 49.2537 9.94167 49.1959 9.80327C48.9269 9.15952 48.0359 9.09179 47.6672 9.68702L47.5396 9.89295L47.5184 12.8359L47.4971 15.7789L45.605 12.7763C44.5643 11.1249 43.635 9.69502 43.5399 9.59888C43.2227 9.27815 42.6138 9.18155 42.1821 9.38343ZM60.1663 9.36311C59.9338 9.46868 59.781 9.66228 59.7253 9.92182C59.6695 10.1825 59.6631 18.0043 59.7185 18.2913C59.7581 18.4963 59.8577 18.6509 60.0356 18.7837C60.151 18.8699 60.2002 18.8716 63.0093 18.8833C65.504 18.8937 65.8876 18.8869 66.0391 18.8294C66.3751 18.7019 66.5971 18.3471 66.5476 18.0166C66.4992 17.6944 66.2599 17.4326 65.9474 17.3601C65.8557 17.3388 64.7997 17.321 63.6009 17.3204L61.4212 17.3194L61.4324 15.9907L61.4436 14.6619L63.442 14.6407C65.4089 14.6197 65.4428 14.6179 65.5909 14.5258C65.9822 14.2824 66.0535 13.6663 65.7265 13.3531C65.4736 13.1109 65.4646 13.11 63.3584 13.11H61.4224V11.9832V10.8564L63.6653 10.8555C65.755 10.8546 65.9198 10.8492 66.0783 10.776C66.2841 10.6811 66.4137 10.5464 66.5014 10.3363C66.5787 10.1513 66.5819 10.0818 66.5229 9.86913C66.4641 9.65764 66.2897 9.45835 66.08 9.36311C65.9189 9.28989 65.7344 9.28504 63.1231 9.28504C60.5119 9.28504 60.3274 9.28989 60.1663 9.36311ZM98.3245 9.33934C97.8815 9.46435 97.4926 9.89282 97.3949 10.3639C97.364 10.5124 97.3532 11.8266 97.3611 14.4507C97.3729 18.3128 97.373 18.3189 97.464 18.4887C97.5759 18.6975 97.6697 18.785 97.8726 18.8698C98.3034 19.0498 98.7947 18.8454 98.9929 18.4037C99.0139 18.3569 99.0407 16.8939 99.0524 15.1526L99.0736 11.9866L100.176 15.025C100.782 16.6962 101.321 18.1496 101.373 18.2548C101.612 18.7365 102.139 18.9392 102.603 18.7283C102.951 18.5702 102.949 18.5761 104.172 15.2569C104.801 13.5499 105.332 12.1351 105.352 12.1129C105.372 12.0907 105.388 13.4766 105.388 15.1927C105.388 18.2855 105.389 18.3147 105.478 18.4993C105.604 18.7601 105.826 18.897 106.163 18.9224C106.388 18.9394 106.46 18.9264 106.621 18.8399C106.726 18.7835 106.87 18.6558 106.94 18.5562L107.067 18.3751L107.08 14.4563C107.091 10.9712 107.085 10.5093 107.025 10.2824C106.753 9.26314 105.507 8.95258 104.802 9.72818C104.607 9.94325 104.57 10.0332 103.478 12.9647C102.86 14.6231 102.334 16.0225 102.308 16.0743C102.268 16.1556 102.119 15.782 101.225 13.353C100.655 11.8045 100.13 10.387 100.058 10.203C99.8295 9.61474 99.4397 9.32522 98.8398 9.29826C98.6601 9.29018 98.4352 9.30813 98.3245 9.33934ZM37.4826 9.42136C37.372 9.47727 37.2403 9.59361 37.1654 9.70139L37.0372 9.88576V14.1235V18.3611L37.1648 18.5494C37.4664 18.9945 38.0848 19.0601 38.4761 18.6884C38.7558 18.4227 38.7367 18.729 38.7513 14.2792C38.761 11.3518 38.7512 10.1777 38.7158 10.014C38.5957 9.45865 37.9871 9.1662 37.4826 9.42136ZM51.3555 9.36183C51.1956 9.40788 50.9575 9.62482 50.8903 9.78571C50.7304 10.1683 50.8847 10.64 51.2301 10.8246C51.4006 10.9157 51.4623 10.9208 52.5463 10.9339L53.6837 10.9476V14.6719V18.3962L53.7919 18.5807C53.9411 18.8354 54.1747 18.9529 54.5341 18.9544C54.8638 18.9557 55.0944 18.8448 55.2577 18.6065L55.3633 18.4524L55.3746 14.7L55.3859 10.9475L56.5439 10.9338C57.8151 10.9189 57.8525 10.9118 58.0758 10.6464C58.411 10.2481 58.2936 9.63545 57.8401 9.41587C57.6552 9.32637 57.6302 9.32573 54.5526 9.32994C52.847 9.33228 51.4083 9.34661 51.3555 9.36183ZM69.1634 9.41945C69.0595 9.47311 68.916 9.59054 68.8445 9.68043L68.7145 9.84379L68.7033 14.0924C68.6924 18.2078 68.6946 18.3459 68.7735 18.4998C68.8831 18.7136 69.0201 18.8342 69.2419 18.9125C69.5678 19.0274 69.8743 18.973 70.121 18.7565C70.4181 18.4956 70.413 18.5268 70.4365 16.8304L70.4578 15.2997H71.536H72.6142L73.3533 16.958C74.1414 18.7259 74.1772 18.7854 74.5142 18.8864C75.1057 19.0636 75.624 18.6927 75.624 18.0924C75.624 17.9002 75.5425 17.6886 74.9914 16.4498L74.3589 15.0277L74.7169 14.8268C75.3575 14.4672 75.8211 13.8567 76.0078 13.1266C76.1099 12.7274 76.119 12.0359 76.0279 11.6005C75.8645 10.8192 75.2782 10.0655 74.561 9.71462C73.8321 9.358 73.7956 9.35362 71.4358 9.33674L69.3523 9.32186L69.1634 9.41945ZM91.6752 10.7868C92.2668 10.9452 92.8101 11.3775 93.0452 11.8769C93.3175 12.4553 93.423 13.2767 93.3837 14.5131C93.3542 15.4417 93.2643 15.933 93.0381 16.4035C92.4218 17.6847 90.7185 17.9614 89.6767 16.9496C89.3537 16.6359 89.1188 16.1151 89.0187 15.4911C88.9427 15.0168 88.9169 13.8101 88.971 13.2588C89.0362 12.5947 89.1141 12.2694 89.3013 11.8803C89.5544 11.354 90.0421 10.9548 90.6335 10.7898C90.8901 10.7182 91.4134 10.7167 91.6752 10.7868ZM73.2654 10.8798C73.9196 11.0502 74.3418 11.5573 74.3817 12.2206C74.411 12.7099 74.3187 12.9767 74.0158 13.2778C73.821 13.4715 73.7187 13.5359 73.4865 13.6115C73.2141 13.7002 73.1251 13.7052 71.8388 13.7052H70.4791V12.2596V10.8139H71.7457C72.7526 10.8139 73.0643 10.8274 73.2654 10.8798ZM5.53407 19.6149C5.58305 19.6152 5.886 19.7861 6.20737 19.9947C7.93499 21.1159 9.84889 21.813 12.0994 22.1406C13.5068 22.3456 15.4705 22.3466 16.8616 22.1431C19.3447 21.78 21.3499 21.0008 23.0523 19.7378C23.4501 19.4426 24.048 19.5728 24.3207 20.014C24.495 20.2959 24.52 20.6388 24.3864 20.9148C24.1125 21.4806 22.1494 22.582 20.2319 23.2458C18.3363 23.902 15.6325 24.2546 13.4844 24.1259C10.4108 23.9418 7.80212 23.1764 5.63748 21.8236C4.64124 21.201 4.44582 20.9889 4.44582 20.53C4.44582 20.26 4.51542 20.071 4.67683 19.9029C4.85758 19.7146 5.19765 19.562 5.35999 19.5963C5.40676 19.6062 5.48509 19.6146 5.53407 19.6149Z" />
</svg>
