<svg enable-background="new 0 0 32 32" version="1.1" viewBox="0 0 32 32" xml:space="preserve"
     xmlns="http://www.w3.org/2000/svg">
    <g>
        <g>
            <path d="M16,0C7.164,0,0,7.163,0,16c0,8.836,7.164,16,16,16s16-7.164,16-16C32,7.163,24.836,0,16,0z M11.844,22.277H8.58v-9.82    h3.264V22.277z M10.212,11.116h-0.021c-1.096,0-1.804-0.755-1.804-1.697c0-0.963,0.73-1.696,1.846-1.696    c1.116,0,1.804,0.733,1.825,1.696C12.058,10.362,11.349,11.116,10.212,11.116z M23.613,22.277L23.613,22.277l-3.264,0v-5.254    c0-1.32-0.472-2.22-1.654-2.22c-0.901,0-1.438,0.607-1.674,1.194c-0.086,0.21-0.108,0.503-0.108,0.796v5.484H13.65    c0,0,0.043-8.898,0-9.82h3.264v1.391c0.433-0.669,1.209-1.622,2.942-1.622c2.147,0,3.757,1.404,3.757,4.42V22.277z"/>
        </g>
    </g>
</svg>
