<svg width="76" height="28" viewBox="0 0 76 28" fill="#2d2d2d" xmlns="http://www.w3.org/2000/svg">
    <path fill-rule="evenodd" clip-rule="evenodd" d="M74.2609 1.12394C73.6226 1.29551 70.1117 2.23489 66.4591 3.21147C62.8064 4.18811 58.8314 5.25141 57.6256 5.57444C56.4199 5.89748 53.1122 6.78237 50.2752 7.54095C34.8837 11.6564 21.7118 15.1807 20.0352 15.6319C17.7563 16.2452 16.8257 16.3812 15.3283 16.3195C13.0087 16.224 11.1179 15.5004 9.76008 14.1886C8.33093 12.808 7.67745 11.004 7.77223 8.70097C7.84503 6.93234 8.3268 5.11401 9.27463 3.0308C9.49952 2.53645 9.67697 2.12592 9.66891 2.11844C9.66085 2.1109 9.29932 2.53252 8.86552 3.0553C3.82865 9.12491 0.844946 14.4634 0.17857 18.5983C0.0334304 19.4987 0.0474222 20.9684 0.208616 21.7594C0.543255 23.4013 1.411 24.6453 3.01391 25.7807C6.26939 28.0868 10.2576 28.3357 15.6256 26.5677C17.7019 25.8839 20.2403 24.8485 29.6746 20.837C30.969 20.2866 33.3047 19.2942 34.865 18.6316C36.4254 17.969 37.8906 17.3453 38.1212 17.2455C38.3517 17.1458 40.3247 16.3032 42.5056 15.3731C48.1337 12.9727 58.7655 8.4272 70.7791 3.2851C73.4033 2.16184 75.6052 1.18964 75.6722 1.12471C75.8241 0.977508 75.7664 0.800776 75.5686 0.807288C75.4877 0.809932 74.8992 0.952428 74.2609 1.12394Z" />
</svg>
