<svg width="114" height="18" viewBox="0 0 114 18" fill="#2d2d2d" xmlns="http://www.w3.org/2000/svg">
    <path fill-rule="evenodd" clip-rule="evenodd" d="M5.39319 0.390916C3.40515 0.546399 1.97649 1.21784 1.22191 2.35127C0.760752 3.044 0.562005 3.74853 0.532271 4.79603C0.515411 5.38989 0.544938 5.7512 0.645976 6.18764C0.896343 7.26907 1.62035 8.15091 3.01946 9.0786C3.51853 9.40949 3.86943 9.61609 5.02903 10.2617C6.48145 11.0704 6.92016 11.3626 7.39338 11.8364C7.74009 12.1835 7.89296 12.4283 7.97166 12.7621C8.06518 13.1589 8.00482 13.7117 7.82712 14.0859C7.58003 14.6062 7.11741 14.8507 6.38196 14.8498C5.53232 14.8487 4.97155 14.4727 4.79207 13.7836C4.75603 13.6453 4.74655 13.421 4.74655 12.7082V11.8075H2.57591H0.405273V12.5606C0.405273 13.3719 0.436227 13.8048 0.525283 14.2386C0.88201 15.9761 2.11122 17.109 4.12791 17.5589C5.57442 17.8816 7.44072 17.8461 8.79454 17.47C9.64418 17.2339 10.3243 16.8666 10.852 16.3586C11.5397 15.6968 11.8735 14.9792 12.0217 13.8443C12.0939 13.2917 12.0935 12.124 12.021 11.6588C11.8245 10.398 11.0971 9.45189 9.54439 8.43779C9.03037 8.10205 8.57254 7.83959 7.4078 7.21284C5.97278 6.44069 5.45117 6.10091 5.07235 5.69164C4.76989 5.36482 4.65734 5.06522 4.65734 4.58676C4.65734 3.66822 5.21059 3.12396 6.14289 3.12541C6.77808 3.12639 7.24126 3.36145 7.47608 3.802C7.63605 4.10214 7.66055 4.25587 7.66055 4.9599V5.59295H9.68251H11.7045L11.7042 4.97595C11.7037 3.77396 11.6014 3.18018 11.2857 2.54841C10.6937 1.36345 9.45234 0.659778 7.55457 0.433437C7.08566 0.377506 5.87025 0.353599 5.39319 0.390916ZM58.0015 0.479496C55.8232 0.649074 54.3416 1.41742 53.6509 2.73562C53.506 3.01221 53.3589 3.40566 53.291 3.69891C53.1006 4.52036 53.1053 5.5887 53.3028 6.34158C53.5681 7.3531 54.3442 8.25626 55.7119 9.14515C56.1207 9.41086 56.5504 9.66244 57.4389 10.1564C57.871 10.3965 58.4266 10.714 58.6737 10.8619C59.6866 11.4681 60.2628 12.0068 60.4727 12.5439C60.5654 12.7812 60.5857 13.3171 60.5143 13.643C60.3816 14.2481 60.0619 14.5902 59.4882 14.7411C59.2298 14.809 58.6785 14.8098 58.4259 14.7426C58.0007 14.6295 57.6459 14.3629 57.4867 14.0371C57.3429 13.7427 57.3186 13.5385 57.3181 12.6178L57.3176 11.7778H55.1734H53.0292L53.0445 12.7516C53.0572 13.5583 53.0702 13.7815 53.1204 14.0525C53.4427 15.7911 54.5784 16.9278 56.4809 17.4159C57.9854 17.8019 59.974 17.7822 61.4078 17.3669C62.2633 17.1191 62.8764 16.775 63.4173 16.2392C64.2687 15.3957 64.586 14.4215 64.5846 12.655C64.584 11.9074 64.5516 11.6021 64.4223 11.1267C64.1702 10.1997 63.3428 9.26017 62.0305 8.41091C61.593 8.12781 61.0737 7.83174 60.0155 7.26217C58.5309 6.46323 58.0235 6.13305 57.6446 5.7195C57.2783 5.31972 57.1539 4.83424 57.2734 4.27026C57.4222 3.56775 57.9352 3.18565 58.73 3.18539C59.326 3.18521 59.7989 3.43189 60.0343 3.86587C60.1846 4.14279 60.2076 4.27763 60.2234 4.97595L60.2381 5.62268H62.2271H64.216V4.93994C64.216 4.56445 64.2012 4.11953 64.1831 3.95126C63.9693 1.96638 62.607 0.819365 60.1126 0.524069C59.6302 0.466979 58.4755 0.442596 58.0015 0.479496ZM106.841 0.467513C106.463 0.505246 105.841 0.608516 105.525 0.686004C104.577 0.917787 103.869 1.29366 103.284 1.87492C102.608 2.54728 102.275 3.26683 102.094 4.44816C102.043 4.78286 102.02 12.5589 102.068 13.1753C102.112 13.7372 102.166 14.0389 102.291 14.439C102.917 16.4427 105.012 17.5348 108.06 17.4476C111.15 17.3591 113.025 16.0885 113.398 13.8295C113.498 13.2266 113.516 12.6725 113.516 10.3078V8.00146H110.647H107.777V9.19085V10.3802H108.61H109.443L109.442 11.7852C109.441 13.3195 109.43 13.4584 109.274 13.7443C109.006 14.2365 108.521 14.5063 107.852 14.5349C106.958 14.5731 106.322 14.1707 106.12 13.4398C106.071 13.2622 106.068 12.9719 106.068 9.02731C106.068 5.04934 106.071 4.79163 106.122 4.57441C106.309 3.77559 106.871 3.3538 107.748 3.3538C108.282 3.3538 108.648 3.48678 108.956 3.79278C109.315 4.15135 109.382 4.38539 109.404 5.3625L109.42 6.06871H111.453H113.486V5.55266C113.486 3.76548 113.155 2.73095 112.313 1.89077C111.581 1.16105 110.668 0.75606 109.249 0.532365C108.93 0.482054 108.697 0.470071 107.911 0.463529C107.388 0.459188 106.906 0.460971 106.841 0.467513ZM68.3617 0.90506C68.3532 0.927272 68.3511 3.76738 68.3572 7.21647C68.367 12.8043 68.3734 13.522 68.4162 13.8038C68.5821 14.8957 68.9044 15.5833 69.5503 16.2236C70.4133 17.079 71.6048 17.5037 73.4409 17.6102C74.6791 17.6821 75.9431 17.5369 76.8737 17.2161C78.5902 16.6242 79.5261 15.3902 79.6769 13.5204C79.697 13.2716 79.7078 10.9821 79.7078 7.00104V0.865126H77.6715H75.6352L75.6273 7.17632L75.6193 13.4875L75.5528 13.6829C75.3841 14.1789 75.0534 14.4974 74.5476 14.6512C74.2791 14.7328 73.7211 14.7244 73.4647 14.635C73.0082 14.4758 72.7233 14.2003 72.5314 13.7327L72.4674 13.5767L72.4525 7.22836L72.4377 0.879993L70.4074 0.872351C68.72 0.865988 68.3746 0.871519 68.3617 0.90506ZM17.6985 0.976631C17.647 1.22334 14.7374 17.0559 14.7374 17.0896C14.7374 17.1233 15.0986 17.13 16.9067 17.13H19.076L19.0928 17.0334C19.1274 16.8344 21.2791 2.44779 21.2791 2.41541C21.2791 2.39679 21.3058 2.3816 21.3385 2.3816C21.3712 2.3816 21.398 2.39837 21.398 2.41885C21.398 2.45519 23.4917 16.8416 23.5249 17.0334L23.5416 17.13H25.7114H27.8813L27.8658 17.0631C27.8462 16.9783 24.9067 0.933933 24.9067 0.911483C24.9067 0.902354 23.2887 0.894861 21.3111 0.894861H17.7156L17.6985 0.976631ZM31.4669 1.11032C31.4525 1.30074 31.1179 16.6309 31.1203 16.9888L31.1213 17.13H33.1432H35.1652L35.1654 15.8886C35.166 12.8064 35.257 2.54547 35.284 2.51847C35.2999 2.50262 35.3209 2.49771 35.3308 2.50758C35.3407 2.51746 35.9498 5.78144 36.6844 9.76087C37.419 13.7403 38.0269 17.0263 38.0353 17.0631L38.0506 17.13H40.0976H42.1446L42.1754 16.9739C42.1924 16.888 42.7984 13.6065 43.5221 9.68148C44.2458 5.75649 44.8493 2.53244 44.8632 2.51689C44.8791 2.49905 44.898 2.49905 44.9143 2.51689C44.9336 2.53803 45.0429 15.207 45.0379 16.855L45.0371 17.13H47.0604H49.0836L49.0658 16.6022C49.056 16.3119 48.9823 12.9434 48.9021 9.11652C48.8219 5.28966 48.7476 1.87426 48.737 1.52672L48.7177 0.894861L45.4278 0.89489L42.138 0.89495L41.1423 7.09821C40.2035 12.9472 40.1256 13.3944 40.0589 13.3202C40.0534 13.3141 39.6015 10.5193 39.0547 7.10942L38.0605 0.909728L34.7719 0.902175L31.4832 0.894594L31.4669 1.11032ZM84.2275 8.93811V16.9814H86.2049H88.1822L88.182 16.6171C88.1818 16.4168 88.1351 13.5098 88.0781 10.1572C88.0211 6.80464 87.9744 3.99138 87.9743 3.9055C87.974 3.66025 88.0445 3.69959 88.1343 3.99471C88.1753 4.12964 88.5847 5.48442 89.0442 7.00535C89.5036 8.52628 90.3697 11.3932 90.9687 13.3762L92.0579 16.9817L94.9297 16.9741L97.8014 16.9665L97.8089 8.93067L97.8164 0.894861H95.8085H93.8006L93.8177 1.49699C93.827 1.82817 93.8736 4.46749 93.9211 7.36217C93.9687 10.2568 94.0141 12.856 94.0221 13.1381C94.0356 13.611 94.0327 13.6511 93.9851 13.6511C93.942 13.6511 93.6298 12.6068 92.0939 7.325C91.0822 3.84565 90.2483 0.975501 90.2407 0.946896C90.2278 0.897775 90.0591 0.894861 87.2272 0.894861H84.2275V8.93811Z" />
</svg>
